<svg width="7" height="20" viewBox="0 0 7 20" fill="none" xmlns="http://www.w3.org/2000/svg">
<path d="M6.65812 3.61273C6.65812 4.67636 6.31539 5.49182 5.62994 6.05909C4.96812 6.60273 4.21176 6.87455 3.36085 6.87455C2.50994 6.87455 1.74176 6.60273 1.0563 6.05909C0.394484 5.49182 0.0635753 4.67636 0.0635753 3.61273C0.0635753 2.54909 0.394484 1.74545 1.0563 1.20182C1.74176 0.634545 2.50994 0.350909 3.36085 0.350909C4.21176 0.350909 4.96812 0.634545 5.62994 1.20182C6.31539 1.74545 6.65812 2.54909 6.65812 3.61273ZM6.65812 16.1991C6.65812 17.2627 6.31539 18.0782 5.62994 18.6455C4.96812 19.1891 4.21176 19.4609 3.36085 19.4609C2.50994 19.4609 1.74176 19.1891 1.0563 18.6455C0.394484 18.0782 0.0635753 17.2627 0.0635753 16.1991C0.0635753 15.1355 0.394484 14.3318 1.0563 13.7882C1.74176 13.2209 2.50994 12.9373 3.36085 12.9373C4.21176 12.9373 4.96812 13.2209 5.62994 13.7882C6.31539 14.3318 6.65812 15.1355 6.65812 16.1991Z" fill="white"/>
</svg>
