<svg width="36" height="36" viewBox="0 0 36 36" fill="none" xmlns="http://www.w3.org/2000/svg">
<g clip-path="url(#clip0)">
<path d="M35.5063 10.6022C35.081 10.2392 34.4809 10.1627 33.978 10.4075L26.2827 14.1538L19.0621 5.82863C18.7951 5.52066 18.4075 5.34375 17.9998 5.34375C17.5921 5.34375 17.2046 5.52066 16.9374 5.82863L9.71691 14.1537L2.02163 10.4074C1.51868 10.1627 0.918638 10.2391 0.493247 10.6021C0.0678567 10.9652 -0.102018 11.5458 0.0606145 12.0809L5.40436 29.659C5.58443 30.2514 6.13069 30.6562 6.74979 30.6562H29.2498C29.8688 30.6562 30.4152 30.2514 30.5952 29.6591L35.9389 12.081C36.1016 11.5459 35.9317 10.9652 35.5063 10.6022ZM28.2074 27.8438H7.79204L3.68923 14.3474L9.4564 17.1551C10.029 17.4338 10.7171 17.293 11.1343 16.8121L17.9998 8.89629L24.8654 16.8121C25.2825 17.2931 25.9708 17.4337 26.5432 17.1551L32.3104 14.3474L28.2074 27.8438Z" fill="white"/>
</g>
<defs>
<clipPath id="clip0">
<rect width="36" height="36" fill="white"/>
</clipPath>
</defs>
</svg>
