<svg width="60" height="60" viewBox="0 0 60 60" fill="none" xmlns="http://www.w3.org/2000/svg">
<g clip-path="url(#clip0)">
<path d="M47.7054 19.3948L52.2752 14.8162L51 13.5L49.787 12.3327L45.1369 16.9916C41.4212 13.9876 36.8018 12.0629 31.7578 11.6977V9.34793H36.5V4.67402V0H23.5V4.67402V9.34793H28.2422V11.6977C23.1982 12.0629 18.5788 13.9876 14.8632 16.9916L10.2131 12.3327L9 13.5L7.72488 14.8162L12.2947 19.3948C8.30262 23.7105 5.85938 29.4833 5.85938 35.8172C5.85938 49.1516 16.6888 60 30 60C43.3112 60 54.1406 49.1516 54.1406 35.8172C54.1406 29.4833 51.6974 23.7105 47.7054 19.3948ZM26.1134 4.67402V3.51562H33.8868V4.67402V5.8323H26.1134V4.67402ZM30 56.4844C18.6273 56.4844 9.375 47.2131 9.375 35.8172C9.375 24.4212 18.6273 15.1499 30 15.1499C41.3727 15.1499 50.625 24.4212 50.625 35.8172C50.625 47.2131 41.3727 56.4844 30 56.4844Z" fill="#009B9D"/>
<path d="M30.0002 18.0742C20.2335 18.0742 12.2876 26.0337 12.2876 35.8171C12.2876 45.6005 20.2335 53.56 30.0002 53.56C39.7671 53.56 47.7129 45.6006 47.7129 35.8172C47.7129 26.0338 39.7671 18.0742 30.0002 18.0742ZM30.0002 50.0444C22.172 50.0444 15.8032 43.6621 15.8032 35.8172C15.8032 27.9723 22.172 21.5898 30.0002 21.5898C37.8285 21.5898 44.1973 27.9722 44.1973 35.8171C44.1973 43.662 37.8285 50.0444 30.0002 50.0444Z" fill="#009B9D"/>
<path d="M35.8484 34.0594H31.7578V27.4437L30 27.4437L28.2422 27.4437V35.8172V37.5751H35.8484V35.8172V34.0594Z" fill="#009B9D"/>
</g>
<defs>
<clipPath id="clip0">
<rect width="60" height="60" fill="white"/>
</clipPath>
</defs>
</svg>
