<svg width="32" height="32" viewBox="0 0 32 32" fill="none" xmlns="http://www.w3.org/2000/svg">
<path d="M18.5238 18.4286L24 24M20.3476 14.181C20.3476 17.5943 17.5857 20.3619 14.1762 20.3619C13.3649 20.3617 12.5615 20.2016 11.8121 19.8909C11.0626 19.5802 10.3817 19.1249 9.80818 18.551C9.23466 17.9772 8.7798 17.296 8.46955 16.5463C8.1593 15.7966 7.99975 14.9932 8 14.1819C7.99963 13.3704 8.15911 12.5667 8.46935 11.8168C8.77959 11.067 9.2345 10.3855 9.80812 9.81148C10.3817 9.23743 11.0628 8.78199 11.8124 8.47117C12.5621 8.16036 13.3656 8.00025 14.1771 8C17.5867 8 20.3486 10.7695 20.3486 14.181H20.3476Z" stroke="#29B8D9" stroke-width="2"/>
</svg>
