<svg width="36" height="36" viewBox="0 0 36 36" fill="none" xmlns="http://www.w3.org/2000/svg">
<path d="M12.7266 0V5.40155C12.7266 7.87605 11.8989 10.3096 10.3329 12.4391C9.10956 14.1028 8.76735 15.496 9.31571 16.5799C10.0034 17.939 11.6556 18 11.672 18C14.4886 18 17.3775 17.0926 17.6669 16.9987C19.646 16.3439 21.4987 16.1444 22.8514 15.9984C24.604 15.8093 25.7618 15.6844 26.2054 14.6765C26.62 13.7346 25.9278 12.7934 25.6672 12.439C24.1012 10.3096 23.2735 7.87612 23.2735 5.40155V0H12.7266ZM23.9679 13.6887C23.9776 13.7019 23.9869 13.7147 23.9959 13.7272C23.6162 13.7943 23.0847 13.8516 22.6251 13.9012C21.1781 14.0573 19.1965 14.271 17.0044 14.9965L16.9964 14.9991C16.8835 15.0355 14.2289 15.8778 11.7292 15.8905C11.5545 15.8633 11.2552 15.7593 11.1938 15.6191C11.1133 15.4352 11.1992 14.8216 12.0322 13.6888C13.8665 11.1945 14.836 8.32887 14.836 5.40155V2.10938H21.1641V5.40155C21.1641 8.32887 22.1337 11.1945 23.9679 13.6887Z" fill="#E54D28"/>
<path d="M23.2737 36V30.5985C23.2737 28.1239 24.1014 25.6904 25.6674 23.5609C26.8907 21.8972 27.233 20.504 26.6846 19.4201C25.9969 18.061 24.3447 18 24.3283 18C21.5117 18 18.6228 18.9074 18.3334 19.0012C16.3543 19.6561 14.5016 19.8556 13.1489 20.0016C11.3963 20.1907 10.2385 20.3156 9.79489 21.3235C9.38033 22.2654 10.0725 23.2066 10.3331 23.561C11.8991 25.6904 12.7268 28.1239 12.7268 30.5985V36H23.2737ZM12.0324 22.3113C12.0227 22.2981 12.0134 22.2853 12.0044 22.2728C12.3841 22.2057 12.9156 22.1484 13.3752 22.0988C14.8222 21.9427 16.8038 21.729 18.9959 21.0035L19.0039 21.0009C19.1168 20.9645 21.7714 20.1222 24.2711 20.1095C24.4458 20.1367 24.7451 20.2407 24.8065 20.3809C24.887 20.5648 24.8011 21.1784 23.9681 22.3112C22.1338 24.8055 21.1643 27.6711 21.1643 30.5985V33.8906H14.8362V30.5985C14.8362 27.6711 13.8666 24.8055 12.0324 22.3113Z" fill="#E54D28"/>
<path d="M6.86278 10.0012C5.17908 12.3419 4.28906 15.1078 4.28906 18C4.28906 20.8921 5.17908 23.658 6.86278 25.9987L8.57517 24.7669C7.15113 22.7873 6.39844 20.4473 6.39844 18C6.39844 15.5526 7.15113 13.2126 8.57517 11.2331L6.86278 10.0012Z" fill="#E54D28"/>
<path d="M29.1368 25.9987C30.8205 23.658 31.7105 20.8921 31.7105 18C31.7105 15.1078 30.8205 12.3419 29.1368 10.0012L27.4244 11.233C28.8485 13.2126 29.6012 15.5526 29.6012 18C29.6012 20.4473 28.8485 22.7873 27.4244 24.7668L29.1368 25.9987Z" fill="#E54D28"/>
</svg>
