<svg width="36" height="36" viewBox="0 0 36 36" fill="none" xmlns="http://www.w3.org/2000/svg">
<g clip-path="url(#clip0)">
<path d="M16.9446 30.709V34.9453C16.9446 35.5278 17.4169 36 17.9993 36H34.9446C35.5271 36 35.9993 35.5278 35.9993 34.9453V30.709C35.9993 30.1265 35.5271 29.6543 34.9446 29.6543H17.9993C17.4168 29.6543 16.9446 30.1265 16.9446 30.709ZM19.054 31.7637H33.89V33.8906H19.054V31.7637Z" fill="#E54D28"/>
<path d="M0.929029 31.7556C1.54757 32.3741 2.3601 32.6834 3.17256 32.6834C3.98502 32.6834 4.79755 32.3742 5.41609 31.7556L18.1502 19.0214L19.6542 20.5254L18.9022 21.2774C18.4904 21.6893 18.4904 22.357 18.9022 22.7689L21.8978 25.7645C22.1038 25.9705 22.3737 26.0735 22.6436 26.0735C22.9134 26.0735 23.1834 25.9705 23.3893 25.7645L32.3759 16.7779C32.7878 16.366 32.7878 15.6982 32.3759 15.2863L29.3803 12.2907C28.9685 11.8788 28.3007 11.8788 27.8888 12.2907L27.1368 13.0427L19.6418 5.5477L20.3938 4.79571C20.5916 4.59792 20.7027 4.32968 20.7027 4.04998C20.7027 3.7702 20.5916 3.50203 20.3938 3.30424L17.3983 0.308647C16.9864 -0.103243 16.3185 -0.103173 15.9067 0.308647L6.92015 9.29529C6.50826 9.70718 6.50826 10.3749 6.92015 10.7868L9.91567 13.7824C10.1134 13.9801 10.3817 14.0913 10.6614 14.0913C10.9411 14.0913 11.2094 13.9801 11.4071 13.7824L12.1591 13.0304L13.6632 14.5344L0.929029 27.2685C-0.308049 28.5056 -0.308049 30.5185 0.929029 31.7556ZM18.1565 4.04998L10.6614 11.545L9.15742 10.041L16.6525 2.54599L18.1565 4.04998ZM21.1396 22.0232L28.6346 14.5282L30.1386 16.0321L22.6436 23.5272L21.1396 22.0232ZM21.1458 19.0338L13.6507 11.5388L18.1503 7.03931L25.6453 14.5343L21.1458 19.0338ZM2.42057 28.76L15.1547 16.026L16.6587 17.5299L3.92462 30.264C3.50992 30.6786 2.83534 30.6786 2.42057 30.264C2.00594 29.8494 2.00594 29.1747 2.42057 28.76Z" fill="#E54D28"/>
</g>
<defs>
<clipPath id="clip0">
<rect width="36" height="36" fill="white"/>
</clipPath>
</defs>
</svg>
