<svg width="36" height="36" viewBox="0 0 36 36" fill="none" xmlns="http://www.w3.org/2000/svg">
<path d="M7.875 11.25H1.125C0.503174 11.25 0 11.7532 0 12.375V32.625C0 33.2468 0.503174 33.75 1.125 33.75H7.875C8.49683 33.75 9 33.2468 9 32.625V12.375C9 11.7532 8.49683 11.25 7.875 11.25ZM6.75 31.5H2.25V13.5H6.75V31.5Z" fill="#E54D28"/>
<path d="M31.8449 13.4994H25.1982C24.617 13.4994 24.3259 13.1115 24.2281 12.9445C24.1303 12.7787 23.9325 12.3359 24.2138 11.8283L26.5572 7.60848C27.0713 6.68453 27.1241 5.59798 26.7033 4.62788C26.2825 3.65669 25.452 2.95247 24.4247 2.69649L22.7724 2.2834C22.3703 2.18233 21.944 2.31087 21.6639 2.62178L12.6924 12.5886C11.7619 13.6246 11.2499 14.9605 11.2499 16.3514V25.8743C11.2499 28.9758 13.7735 31.4993 16.8749 31.4993L28.0667 31.4982C30.5936 31.4982 32.8249 29.7965 33.4917 27.3608L35.8933 18.5893C35.9637 18.2828 35.9999 17.9686 35.9999 17.6544C35.9999 15.3637 34.1355 13.4993 31.8449 13.4993L31.8449 13.4994ZM33.7115 18.0378L31.3209 26.7664C30.9209 28.2276 29.5828 29.2494 28.0667 29.2494H16.8749C15.0138 29.2494 13.4999 27.7354 13.4999 25.8744V16.3514C13.4999 15.5164 13.8075 14.7144 14.3657 14.0937L22.8833 4.6301L23.8787 4.87839C24.2215 4.96409 24.4983 5.1992 24.639 5.52329C24.7796 5.84629 24.762 6.20774 24.5906 6.51646L22.2472 10.7363C21.6606 11.7921 21.676 13.0445 22.289 14.086C22.902 15.1275 23.9897 15.7494 25.1982 15.7494H31.8449C32.8952 15.7494 33.7499 16.6041 33.7499 17.6544C33.7499 17.7972 33.7334 17.9411 33.7115 18.0378V18.0378Z" fill="#E54D28"/>
</svg>
