<svg width="48" height="48" viewBox="0 0 48 48" fill="none" xmlns="http://www.w3.org/2000/svg">
<g clip-path="url(#clip0)">
<path d="M37.7095 1.72199C37.7095 1.07067 37.3325 0.453627 36.7497 0.179387C36.1327 -0.129133 35.4471 -0.0262927 34.9329 0.385067L19.7468 12.4859L37.7095 30.4486V1.72199Z" fill="white"/>
<path d="M47.4944 45.0735L2.93043 0.509523C2.26197 -0.158936 1.1753 -0.158936 0.506838 0.509523C-0.161622 1.17798 -0.161622 2.26466 0.506838 2.93312L11.2913 13.721H10.2869C9.22424 13.721 8.29868 14.2009 7.68164 14.9551C7.16744 15.5379 6.85892 16.3263 6.85892 17.149V30.861C6.85892 32.7464 8.40152 34.289 10.2869 34.289H18.2399L34.9342 47.6239C35.2427 47.8639 35.6198 48.001 35.9969 48.001C36.2369 48.001 36.5111 47.9324 36.7511 47.8296C37.3338 47.5554 37.7109 46.9383 37.7109 46.287V40.1406L45.0674 47.4971C45.4033 47.833 45.8421 48.001 46.2809 48.001C46.7197 48.001 47.1585 47.833 47.4944 47.5005C48.1629 46.8286 48.1629 45.7454 47.4944 45.0735Z" fill="white"/>
</g>
<defs>
<clipPath id="clip0">
<rect width="48" height="48" fill="white"/>
</clipPath>
</defs>
</svg>
