<svg width="60" height="60" viewBox="0 0 60 60" fill="none" xmlns="http://www.w3.org/2000/svg">
<path d="M53.5331 18.8273H45.877V12.9295C45.877 12.9295 51.5834 12.9295 55.2398 12.9295C58.8962 12.9295 55.2421 12.9295 55.2421 12.9295L59.5 13L56.43 9.87577L53.0187 6.46453L56.4831 3.00063L59.5 0H55.2402H44.1192H42.3618V18.8273H40.3536H33.8891V28.2412H30.9402H29.0574H22.5929V37.6551H19.6435H17.7612H11.2962V47.0685H8.3473H0V53.5331V58.2398V59.9976H58.2398L59.9976 60V18.8273H53.5331ZM45.877 3.51562H50.9963L49.2902 5.2217L48 6.46453L49.2902 7.70781L50.9963 9.41389H45.877V3.51562ZM3.51562 53.5331V50.5842H8.3473H11.2962V56.4824H3.51562V53.5331ZM14.8118 53.5331V41.1703H17.7607H19.6435H22.5924V56.4824H14.8118V53.5331ZM26.108 44.1196V31.7568H29.0574H30.9402H33.8891V56.4824H26.108V44.1196ZM56.482 56.4824H37.4047V22.3429H40.3536H53.5331H56.482V56.4824Z" fill="#009B9D"/>
</svg>
