<svg width="36" height="36" viewBox="0 0 36 36" fill="none" xmlns="http://www.w3.org/2000/svg">
<path d="M32.1198 11.2964H27.5262V7.75771C27.5262 7.75771 30.95 7.75771 33.1439 7.75771C35.3377 7.75771 33.1452 7.75771 33.1452 7.75771L35.7 7.8L33.858 5.92546L31.8112 3.87872L33.8898 1.80038L35.7 0H33.1441H26.4715H25.4171V11.2964H24.2122H20.3335V16.9447H18.5641H17.4344H13.5557V22.5931H11.7861H10.6567H6.77773V28.2411H5.00838H0V32.1198V34.9439V35.9986H34.9439L35.9986 36V11.2964H32.1198ZM27.5262 2.10937H30.5978L29.5741 3.13302L28.8 3.87872L29.5741 4.62469L30.5978 5.64833H27.5262V2.10937ZM2.10937 32.1198V30.3505H5.00838H6.77773V33.8895H2.10937V32.1198ZM8.8871 32.1198V24.7022H10.6564H11.7861H13.5555V33.8895H8.8871V32.1198ZM15.6648 26.4718V19.0541H17.4344H18.5641H20.3335V33.8895H15.6648V26.4718ZM33.8892 33.8895H22.4428V13.4058H24.2122H32.1198H33.8892V33.8895Z" fill="#E54D28"/>
</svg>
