<svg width="60" height="60" viewBox="0 0 60 60" fill="none" xmlns="http://www.w3.org/2000/svg">
<path d="M53.5408 0H30.7703L29.5275 0.514983L1.88827 28.1533V37.287L22.7123 58.1106H27.4035L31.8461 58.1102L59.4844 30.4714L59.9994 29.2286L59.9998 6.45811V0L53.5408 0ZM56.4837 28.5007L29.9996 55H24.4996L4.9996 35V30L31.4982 3.51561H53.5408L56.4996 3.5L56.4842 6.45857L56.4837 28.5007Z" fill="#009B9D"/>
<path d="M44.5065 9.97003C43.0311 9.97003 41.6441 10.545 40.6008 11.5882C39.5576 12.631 38.9831 14.018 38.9831 15.4934C38.9831 16.9688 39.5576 18.3558 40.6008 19.399C41.6441 20.4423 43.0311 21.0168 44.5065 21.0168C45.9814 21.0168 47.3684 20.4423 48.4116 19.399C49.4549 18.3558 50.0294 16.9688 50.0294 15.4934C50.0294 14.018 49.4549 12.631 48.4121 11.5882C47.3689 10.545 45.9818 9.97003 44.5065 9.97003ZM45.926 16.9129C45.547 17.2924 45.0425 17.5012 44.5065 17.5012C43.97 17.5012 43.466 17.2924 43.0869 16.9129C42.7074 16.5339 42.4987 16.0294 42.4987 15.4934C42.4987 14.9574 42.7074 14.4529 43.0869 14.0739C43.466 13.6944 43.9704 13.4857 44.5065 13.4857C45.0425 13.4857 45.5465 13.6944 45.926 14.0739C46.3055 14.4529 46.5142 14.9574 46.5142 15.4934C46.5142 16.0294 46.305 16.5339 45.926 16.9129Z" fill="#009B9D"/>
</svg>
